<svg width="100" height="116" viewBox="0 0 100 116" fill="none" xmlns="http://www.w3.org/2000/svg">
<rect y="7" width="100" height="100" fill="#461728"/>
<path d="M16.7532 95.2166C14.8874 95.1035 13.1346 94.4533 11.495 93.2659C9.85529 92.1351 9.03545 90.4954 9.03545 88.3469C9.03545 88.0642 9.03545 87.7815 9.03545 87.4988C9.09199 87.2161 9.14854 86.9334 9.20508 86.6507C9.54432 85.1806 10.449 83.9367 11.919 82.919C13.4456 81.9013 14.9722 81.4207 16.4988 81.4772C17.0642 80.516 17.9123 80.0355 19.0431 80.0355C20.0043 80.0355 20.7959 80.516 21.4178 81.4772C21.8701 81.5903 22.2376 81.6469 22.5203 81.6469C22.9161 81.6469 23.2554 81.562 23.5381 81.3924C23.8773 81.2793 24.0752 81.1097 24.1317 80.8836C24.2448 80.4878 24.4144 80.2899 24.6406 80.2899C24.9233 80.2899 25.0929 80.403 25.1495 80.6291C25.2625 81.0249 25.206 81.5055 24.9798 82.0709C24.8102 82.6929 24.2166 83.0604 23.1988 83.1734C22.9161 83.1734 22.4921 83.0604 21.9267 82.8342C21.9832 83.0604 22.0115 83.2583 22.0115 83.4279C22.0115 83.654 22.0115 83.9085 22.0115 84.1912C22.0115 84.3608 22.0115 84.5304 22.0115 84.7C22.0115 84.9262 21.9832 85.1524 21.9267 85.3785V85.633C21.9267 86.1418 22.068 86.5659 22.3507 86.9051C22.69 87.3009 23.0292 87.3857 23.3684 87.1595C23.5946 87.0465 23.7642 86.9899 23.8773 86.9899C24.0469 86.9899 24.0752 87.1313 23.9621 87.414C23.4533 88.149 22.803 88.5165 22.0115 88.5165C21.1068 88.5165 20.4001 88.1207 19.8912 87.3292C19.3823 86.5376 19.0996 85.8591 19.0431 85.2937C18.93 84.2194 18.6191 83.4561 18.1102 83.0038C17.6013 82.5515 17.1207 82.2688 16.6684 82.1557H16.5836C15.4528 82.0992 14.2937 82.5515 13.1064 83.5127C11.919 84.5304 11.184 85.6895 10.9013 86.9899C10.8447 87.2161 10.7882 87.4705 10.7317 87.7532C10.7317 88.0359 10.7317 88.2904 10.7317 88.5165C10.7317 90.2693 11.3819 91.6262 12.6823 92.5874C13.9827 93.5486 15.5093 94.0292 17.2621 94.0292C19.5237 94.0292 21.8984 93.2942 24.3862 91.8241C26.8739 90.3541 29.4465 88.3469 32.1039 85.8026C34.7613 83.2583 37.3905 80.4312 39.9913 77.3215C39.1432 76.8127 38.2668 76.1342 37.3622 75.2861C36.4575 74.4945 35.6377 73.6747 34.9027 72.8266C34.1677 71.9784 33.4892 71.1303 32.8672 70.2822L32.7824 70.1974C31.9343 69.5755 31.171 69.1232 30.4925 68.8405C29.8706 68.5578 29.2204 68.4447 28.5419 68.5012C28.655 68.6708 28.7115 68.8687 28.7115 69.0949C28.7115 69.2645 28.7115 69.4624 28.7115 69.6886C28.7115 70.5932 28.3723 71.413 27.6938 72.1481C27.0718 72.8831 26.2237 73.2506 25.1495 73.2506C24.7537 73.2506 24.3579 73.2506 23.9621 73.2506C23.6229 73.1941 23.2836 73.1658 22.9444 73.1658C21.0786 73.1658 19.6368 73.5616 18.6191 74.3531C17.6013 75.0882 16.9228 75.6818 16.5836 76.1342C16.5271 75.9645 16.4988 75.7949 16.4988 75.6253C16.4988 75.4557 16.4988 75.2861 16.4988 75.1164C16.4988 73.816 16.8946 72.5439 17.6861 71.3C18.5342 69.9995 19.2127 69.0949 19.7216 68.586C20.1174 68.1902 20.8807 67.7662 22.0115 67.3139C23.1423 66.805 24.2448 66.5506 25.3191 66.5506C26.4499 66.5506 27.3545 66.9181 28.033 67.6531C28.7115 67.54 29.3335 67.5683 29.8989 67.7379C30.5208 67.851 31.1145 68.0206 31.6799 68.2468C30.9449 66.7202 30.436 65.1936 30.1533 63.667C29.8706 62.1404 29.7858 60.6704 29.8989 59.2569C26.3368 58.9176 23.3684 57.5606 20.9937 55.1859C18.6191 52.8113 17.4317 49.8712 17.4317 46.3656C17.4317 45.2348 17.5731 44.0475 17.8558 42.8036C18.1385 41.5597 18.5908 40.2876 19.2127 38.9871C20.0043 37.4605 20.8807 36.0753 21.8419 34.8314C22.8596 33.5875 23.9621 32.4567 25.1495 31.439C24.4144 31.7217 23.6511 31.863 22.8596 31.863C22.5769 31.863 22.2659 31.8348 21.9267 31.7782C21.644 31.7217 21.3613 31.6086 21.0786 31.439C20.6828 31.2128 20.4001 30.9018 20.2305 30.5061C20.0608 30.0537 19.976 29.6297 19.976 29.2339C19.976 28.4989 20.1739 27.8769 20.5697 27.3681C20.7393 27.1985 20.8807 27.1136 20.9937 27.1136C21.1634 27.1136 21.2482 27.4246 21.2482 28.0466C21.2482 28.5554 21.5592 29.0077 22.1811 29.4035C22.8596 29.7428 23.6229 29.9972 24.471 30.1668C25.3191 30.2799 25.9693 30.2799 26.4216 30.1668C26.8174 29.9407 27.1001 29.8276 27.2697 29.8276C30.2098 27.7921 33.4609 26.2655 37.0229 25.2478C40.6415 24.2301 44.2884 23.5516 47.9635 23.2124C51.6952 22.8166 55.1724 22.6187 58.3952 22.6187C63.7666 22.6187 68.3463 23.1275 72.1345 24.1453C75.9227 25.1065 78.9477 26.4069 81.2093 28.0466C82.6793 27.255 84.0928 26.7179 85.4498 26.4352C86.8633 26.0959 88.1637 25.9263 89.3511 25.9263C90.9908 25.9263 92.3477 26.1525 93.422 26.6048C94.4963 27.0571 95.1465 27.5942 95.3726 28.2162L94.8638 28.5554C94.4115 28.0466 93.7612 27.6225 92.9131 27.2833C92.1216 26.944 91.1604 26.7744 90.0296 26.7744C89.0118 26.7744 87.8528 26.944 86.5523 27.2833C85.3085 27.6225 83.9515 28.2162 82.4814 29.0643C83.9515 30.3082 85.0258 31.6651 85.7042 33.1352C86.4393 34.6052 86.8068 36.1036 86.8068 37.6302C86.8068 39.7222 86.1566 41.7293 84.8561 43.6517C83.5557 45.5741 81.6899 47.242 79.2586 48.6555C76.8274 50.069 73.859 51.0302 70.3535 51.5391C74.1417 52.2741 76.9687 53.8007 78.8346 56.1189C80.7569 58.437 81.7181 61.0096 81.7181 63.8366C81.7181 65.9852 81.181 68.1337 80.1067 70.2822C79.0325 72.4308 77.3928 74.4097 75.1877 76.219C73.0392 78.0283 70.3535 79.4701 67.1307 80.5443C63.9079 81.6751 60.148 82.2405 55.8509 82.2405C55.5117 82.2405 55.1724 82.2405 54.8332 82.2405C54.4939 82.2405 54.1547 82.2123 53.8155 82.1557C52.0062 82.2688 50.5361 82.7494 49.4053 83.5975C49.6315 84.0498 49.7445 84.4456 49.7445 84.7848C49.7445 85.3503 49.5749 85.8591 49.2357 86.3114C48.8964 86.8203 48.4724 87.103 47.9635 87.1595C46.2673 87.2726 45.0517 87.7815 44.3167 88.6861C43.6382 89.5908 43.2424 90.2693 43.1293 90.7216C42.8466 90.2127 42.7053 89.5908 42.7053 88.8558C42.7053 88.0642 42.8183 87.3009 43.0445 86.5659C43.3272 85.8308 43.5816 85.2654 43.8078 84.8697C44.034 84.4739 44.458 83.965 45.08 83.3431C45.7584 82.7211 46.4935 82.4102 47.285 82.4102C47.8504 82.4102 48.3593 82.608 48.8116 83.0038H48.8964C49.2357 82.7211 49.5749 82.4667 49.9142 82.2405C50.3099 82.0709 50.7057 81.9296 51.1015 81.8165C48.8399 81.3642 46.6631 80.6857 44.5711 79.781C40.2175 84.8697 35.6943 88.7709 31.0014 91.4849C26.3651 94.2554 21.6157 95.4993 16.7532 95.2166ZM30.0685 58.1543C30.6339 55.2142 32.0191 52.783 34.2242 50.8606C36.4293 48.8817 39.1715 47.8922 42.4508 47.8922C44.2601 47.8922 46.126 48.2315 48.0483 48.91C48.8964 47.6661 49.5184 46.3939 49.9142 45.0935C50.3099 43.7931 50.5078 42.5209 50.5078 41.277C50.5078 39.0719 49.9424 37.1496 48.8116 35.5099C47.6808 33.8137 46.126 32.8525 44.147 32.6263C44.147 32.7394 43.9209 32.9373 43.4686 33.22C42.8466 33.6158 42.1399 34.1529 41.3483 34.8314C40.5567 35.4534 40.1327 36.5559 40.0761 38.139C40.0196 38.874 39.6804 39.9483 39.0584 41.3618C38.4365 42.7753 37.5884 43.8779 36.5141 44.6694C35.8356 45.1783 35.1006 45.4327 34.309 45.4327C33.6871 45.4327 33.1499 45.2348 32.6976 44.8391C32.528 44.6694 32.4432 44.5564 32.4432 44.4998C32.4432 44.3867 32.5563 44.3302 32.7824 44.3302C33.0086 44.3302 33.2347 44.3019 33.4609 44.2454C34.0829 44.1323 34.5917 43.68 34.9875 42.8884C35.4398 42.0403 35.6094 41.2487 35.4964 40.5137C35.3267 37.9694 35.8356 35.9057 37.0229 34.3225C38.2668 32.7394 39.7652 31.9196 41.5179 31.863C43.0445 31.8065 44.458 31.9478 45.7584 32.2871C45.4757 32.0044 45.1648 31.6651 44.8255 31.2694C44.5428 30.817 44.4015 30.3082 44.4015 29.7428C44.4015 29.2339 44.6559 28.8381 45.1648 28.5554C45.6736 28.2727 46.1825 28.1314 46.6914 28.1314C46.9741 28.1314 47.2285 28.1879 47.4547 28.301C47.8504 28.5272 48.0483 28.725 48.0483 28.8947C48.0483 29.0077 47.7091 29.0643 47.0306 29.0643C46.6348 29.0643 46.4369 29.347 46.4369 29.9124C46.4369 30.4213 46.5783 31.0149 46.861 31.6934C47.1437 32.3719 47.4264 32.8525 47.7091 33.1352C48.953 33.8702 49.8859 34.8314 50.5078 36.0188C51.1863 37.2061 51.5821 38.5348 51.6952 40.0049C51.9213 39.6091 52.1758 39.2416 52.4585 38.9023C52.7412 38.5631 53.0239 38.1956 53.3066 37.7998C53.0239 37.4605 52.8825 36.9799 52.8825 36.358C52.8825 35.6795 53.137 34.9728 53.6458 34.2377C54.1547 33.4462 54.918 32.7677 55.9357 32.2023C57.745 31.2411 60.0066 30.7605 62.7206 30.7605C63.6817 30.7605 64.5581 30.8453 65.3497 31.0149C66.1413 31.1846 66.7632 31.4673 67.2155 31.863C67.6113 32.2588 67.8092 32.5698 67.8092 32.7959C67.8657 33.0221 67.8657 33.1917 67.8092 33.3048C67.583 33.2483 67.3286 33.22 67.0459 33.22C66.7632 33.1635 66.4805 33.1352 66.1978 33.1352C65.5193 33.1352 64.9539 33.22 64.5016 33.3896C63.8796 33.6723 63.4273 34.0681 63.1446 34.577C62.8619 35.0858 62.5227 35.6795 62.1269 36.358C61.7311 36.9799 60.9961 37.6302 59.9218 38.3086C59.0172 38.9306 57.9429 39.2416 56.699 39.2416C55.7944 39.2416 54.9463 39.0154 54.1547 38.5631C53.3066 39.2416 52.7129 39.9483 52.3737 40.6833C52.091 41.3618 51.8931 42.1251 51.78 42.9732C51.6669 43.1994 51.5821 43.3407 51.5256 43.3973C51.1863 45.4893 50.423 47.4682 49.2357 49.334L50.9319 50.0973C53.0239 51.1716 54.9463 52.6416 56.699 54.5075L58.7345 51.3695C60.2611 49.1644 62.0421 46.7614 64.0775 44.1606C66.1695 41.5032 68.4594 38.9023 70.9472 36.358C73.435 33.8137 75.9793 31.5803 78.5801 29.658L78.7498 29.4883C76.8274 27.8487 74.1417 26.52 70.6928 25.5022C67.3003 24.428 63.1729 23.8908 58.3104 23.8908C54.918 23.8908 51.469 24.1453 47.9635 24.6541C44.458 25.163 41.0656 26.0394 37.7862 27.2833C34.5069 28.4706 31.5668 30.1386 28.9659 32.2871C26.3651 34.4356 24.2448 37.1778 22.6052 40.5137C21.3613 43.058 20.7393 45.4893 20.7393 47.8074C20.7393 50.691 21.6157 53.0657 23.3684 54.9315C25.1212 56.7974 27.3545 57.8716 30.0685 58.1543ZM63.8231 50.9454C68.0636 50.6627 71.5974 49.8712 74.4244 48.5707C77.308 47.2703 79.4565 45.6589 80.87 43.7365C82.3401 41.8141 83.0751 39.807 83.0751 37.715C83.0751 35.1141 82.0291 32.7677 79.9371 30.6757L79.4282 31.0149C77.9017 32.0892 76.262 33.6723 74.5092 35.7643C72.813 37.8563 71.0603 40.231 69.251 42.8884C67.4417 45.4893 65.6324 48.1749 63.8231 50.9454ZM33.8001 58.0695C35.7225 57.7868 37.7014 57.1083 39.7369 56.0341C41.8289 54.9032 43.9209 53.3484 46.0129 51.3695C46.239 51.1433 46.4369 50.9454 46.6065 50.7758C46.8327 50.5496 47.0306 50.3235 47.2002 50.0973C46.7479 49.9842 46.2956 49.8994 45.8433 49.8429C45.3909 49.7863 44.9386 49.7581 44.4863 49.7581C41.9985 49.7581 39.7934 50.5496 37.8711 52.1328C35.9487 53.7159 34.5917 55.6948 33.8001 58.0695ZM40.8394 76.3038C43.4968 73.081 46.0977 69.6886 48.642 66.1265C51.2429 62.5079 53.6741 59.0024 55.9357 55.61C54.2395 53.6311 52.2889 52.1328 50.0838 51.115C49.5184 50.8323 48.9812 50.6062 48.4724 50.4366C48.2462 50.7758 47.9918 51.0868 47.7091 51.3695C47.4829 51.6522 47.2285 51.9349 46.9458 52.2176C45.9281 53.2353 44.8821 54.1117 43.8078 54.8467C42.7901 55.5817 41.7723 56.2319 40.7546 56.7974C41.4896 56.7974 42.2247 56.967 42.9597 57.3062C43.3555 56.9104 43.8643 56.7125 44.4863 56.7125C45.2213 56.7125 45.9281 57.0518 46.6065 57.7303C47.285 58.3522 47.6243 59.3699 47.6243 60.7834C47.6243 61.3489 47.5395 61.9991 47.3698 62.7341C47.2002 63.4126 46.8893 63.978 46.4369 64.4303C46.4369 64.1476 46.4087 63.8084 46.3521 63.4126C46.3521 62.9603 46.2108 62.5079 45.9281 62.0556C45.7584 61.7729 45.4757 61.5467 45.08 61.3771C44.7407 61.151 44.3732 60.9813 43.9774 60.8683C43.6382 60.7552 43.2707 60.5573 42.8749 60.2746C42.4791 59.9353 42.2812 59.4547 42.2812 58.8328C42.2812 58.4936 42.366 58.1543 42.5356 57.8151C41.9702 57.6455 41.3483 57.5606 40.6698 57.5606C40.0479 57.5606 39.3411 57.6455 38.5495 57.8151C36.9664 58.5501 35.2985 59.0024 33.5457 59.172C33.3761 59.7375 33.263 60.3311 33.2065 60.9531C33.1499 61.5185 33.1217 62.1121 33.1217 62.7341C33.1217 64.7695 33.5457 66.805 34.3938 68.8405C35.2985 70.8759 36.7402 72.7983 38.7192 74.6076C39.0584 74.8903 39.3976 75.173 39.7369 75.4557C40.0761 75.7384 40.4436 76.0211 40.8394 76.3038ZM55.5117 81.0532C59.1302 81.0532 62.3248 80.4878 65.0953 79.357C67.8657 78.2827 70.1839 76.8409 72.0497 75.0316C73.9156 73.2223 75.3008 71.2434 76.2054 69.0949C77.1666 66.9464 77.6472 64.8261 77.6472 62.7341C77.6472 59.9071 76.7426 57.4476 74.9333 55.3556C73.1805 53.2636 70.4666 52.1045 66.7915 51.8783H64.2472C64.0775 51.8783 63.9079 51.9066 63.7383 51.9631C63.5687 51.9631 63.3708 51.9631 63.1446 51.9631C62.5227 53.0374 61.8725 54.1117 61.194 55.1859C60.5155 56.2037 59.8653 57.2214 59.2433 58.2391C60.2611 60.1615 60.9113 62.1404 61.194 64.1759C61.2505 64.1759 61.2788 64.1476 61.2788 64.0911C61.9573 64.5434 62.8336 64.7695 63.9079 64.7695C64.3602 64.7695 64.7843 64.713 65.1801 64.5999C65.5759 64.4303 65.802 64.1759 65.8586 63.8366C66.0282 63.3843 66.2543 63.1581 66.537 63.1581C66.7067 63.1581 66.848 63.2995 66.9611 63.5822C67.0742 63.8084 67.1307 64.0628 67.1307 64.3455C67.1307 64.7978 66.9611 65.2784 66.6218 65.7873C66.3391 66.2961 65.7172 66.5506 64.756 66.5506C64.0775 66.5506 63.3708 66.3244 62.6358 65.8721C61.9007 65.3632 61.4767 64.9957 61.3636 64.7695L61.2788 64.6847V65.7873C61.2788 67.8793 60.6568 69.8016 59.4129 71.5544C58.1691 73.2506 56.6425 74.1835 54.8332 74.3531L54.6636 73.9291C56.5859 73.4768 57.9429 72.459 58.7345 70.8759C59.5826 69.2928 60.0066 67.6248 60.0066 65.8721C60.0066 63.667 59.4978 61.5467 58.48 59.5113C57.6885 60.8683 56.8969 62.1687 56.1053 63.4126C55.3703 64.5999 54.6636 65.7307 53.9851 66.805C52.5716 69.0666 51.1298 71.1869 49.6597 73.1658C48.2462 75.1447 46.8044 77.0388 45.3344 78.8481C48.7268 80.3182 52.1192 81.0532 55.5117 81.0532Z" fill="#F7ECE2"/>
</svg>
